# xmcd
#
# Track frame offsets: 
#        150
#        13275
#        27172
#        40082
#        53348
#        67177
#        81301
#        94830
#        108940
#        122728
#        135544
#        147310
#        161054
#        171789
#        184052
#        194656
#        206956
#        221322
#        240560
#        250957
#        261579
#        272214
#
# Disc length: 3826 seconds
#
# Revision: 1
# Processed by: cddbd v1.5.2PL0 Copyright (c) Steve Scherf et al.
# Submitted via: ExactAudioCopyFreeDBPlugin 1.0
#
DISCID=4e0ef016
DTITLE=B.B. King - Essential Original Albums [Disc 1]
DYEAR=2016
DGENRE=Blues
TTITLE0=Please Love Me
TTITLE1=You Upset Me Baby
TTITLE2=Everyday I Have the Blues
TTITLE3=Bad Luck
TTITLE4=3 O'clock Blues
TTITLE5=Blind Love
TTITLE6=Woke Up This Morning
TTITLE7=You Know I Love You
TTITLE8=Sweet Little Angel
TTITLE9=Ten Long Years
TTITLE10=Did You Ever Love a Woman
TTITLE11=Crying Won't Help You
TTITLE12=Bad Case of Love
TTITLE13=Get Out of Here
TTITLE14=Bad Luck Soul
TTITLE15=Shut Your Mouth
TTITLE16=Baby, Look at You
TTITLE17=You're Breaking My Heart
TTITLE18=My Reward
TTITLE19=Don't Cry Anymore
TTITLE20=Blues for Me (Aka Groovin' Twist)
TTITLE21=(Ain't That) Just Like a Woman
EXTD=
EXTT0=
EXTT1=
EXTT2=
EXTT3=
EXTT4=
EXTT5=
EXTT6=
EXTT7=
EXTT8=
EXTT9=
EXTT10=
EXTT11=
EXTT12=
EXTT13=
EXTT14=
EXTT15=
EXTT16=
EXTT17=
EXTT18=
EXTT19=
EXTT20=
EXTT21=
PLAYORDER=
